HIERARCHY
ROOT teapot2
{
	OFFSET 0.000000 0.000000 0.000000
	CHANNELS 6 Xposition Yposition Zposition Yrotation Xrotation Zrotation
	End Site
	{
		OFFSET 0.000000 0.000000 0.000000
	}
}
MOTION
Frames: 120
Frame Time: 0.008333334
1.135302 3.655323 3.226673 -45.130980 -0.133667 1.824357 
1.135157 3.655487 3.226851 -45.146850 -0.157013 1.837401 
1.135314 3.655400 3.226972 -45.134770 -0.148041 1.814221 
1.135439 3.655479 3.227067 -45.134950 -0.132019 1.820324 
1.135500 3.655366 3.227262 -45.146610 -0.139984 1.790976 
1.135665 3.655350 3.227195 -45.135070 -0.107513 1.787868 
1.135744 3.655467 3.227433 -45.148040 -0.155579 1.793073 
1.135630 3.655377 3.227409 -45.151760 -0.136383 1.788929 
1.135701 3.655290 3.227293 -45.136810 -0.134033 1.778434 
1.135538 3.655324 3.227429 -45.150760 -0.139526 1.790043 
1.135489 3.655336 3.227356 -45.148130 -0.142151 1.791435 
1.135510 3.655500 3.227401 -45.133580 -0.147095 1.824220 
1.135401 3.655354 3.227334 -45.130950 -0.126648 1.792920 
1.135368 3.655311 3.227304 -45.142210 -0.137207 1.796737 
1.135378 3.655669 3.227221 -45.136840 -0.147919 1.837157 
1.135473 3.655518 3.227224 -45.129060 -0.137360 1.823339 
1.135358 3.655316 3.227309 -45.143920 -0.127319 1.793698 
1.135184 3.655246 3.227472 -45.146480 -0.134277 1.795945 
1.134947 3.655226 3.227584 -45.142180 -0.122711 1.802602 
1.134851 3.655448 3.227672 -45.136870 -0.098419 1.812207 
1.134598 3.655293 3.227741 -45.140380 -0.099396 1.804794 
1.134577 3.655245 3.227650 -45.131650 -0.096008 1.796619 
1.134605 3.655261 3.227590 -45.134550 -0.098816 1.797868 
1.134684 3.655370 3.227221 -45.113920 -0.094299 1.817908 
1.134544 3.655276 3.227032 -45.125240 -0.096069 1.823469 
1.134434 3.655323 3.226878 -45.142760 -0.121429 1.833204 
1.134340 3.655245 3.226674 -45.139890 -0.126495 1.825034 
1.134236 3.655166 3.226586 -45.134980 -0.108765 1.832841 
1.134001 3.655111 3.226637 -45.121460 -0.125244 1.849191 
1.134325 3.655208 3.227058 -45.145020 -0.107727 1.804719 
1.134397 3.655166 3.227526 -45.136050 -0.103210 1.801591 
1.134228 3.655253 3.227989 -45.149170 -0.111664 1.815202 
1.134245 3.655252 3.228473 -45.157350 -0.105164 1.815719 
1.134292 3.655183 3.228662 -45.153020 -0.095703 1.794497 
1.134260 3.655275 3.228783 -45.123780 -0.105896 1.810567 
1.134172 3.655139 3.229186 -45.159910 -0.104523 1.774091 
1.134590 3.655407 3.229122 -45.159550 -0.087738 1.760862 
1.134427 3.655128 3.229071 -45.156890 -0.090515 1.757313 
1.134477 3.655181 3.228765 -45.165680 -0.082428 1.770440 
1.134670 3.655270 3.228806 -45.156890 -0.113586 1.779096 
1.134767 3.655143 3.228643 -45.166560 -0.081360 1.761831 
1.134735 3.655087 3.228624 -45.149050 -0.101563 1.762213 
1.134728 3.655277 3.228239 -45.150210 -0.094910 1.798362 
1.134762 3.655360 3.228187 -45.154850 -0.097260 1.806870 
1.134715 3.655087 3.227884 -45.152130 -0.091339 1.769696 
1.134743 3.655467 3.227655 -45.141170 -0.079803 1.799840 
1.134721 3.655443 3.227799 -45.142790 -0.089508 1.801870 
1.134476 3.655212 3.228359 -45.158230 -0.100891 1.801053 
1.134109 3.655240 3.228658 -45.155120 -0.098694 1.819748 
1.133801 3.655090 3.229118 -45.141510 -0.087952 1.816160 
1.133580 3.655146 3.229832 -45.145540 -0.102814 1.814432 
1.133282 3.655160 3.230485 -45.126800 -0.105042 1.804423 
1.133072 3.655424 3.230947 -45.106320 -0.045959 1.828894 
1.133136 3.655479 3.231601 -45.122440 -0.052063 1.825861 
1.133121 3.655486 3.232224 -45.111450 -0.063721 1.813724 
1.133228 3.655528 3.232288 -45.104680 -0.071381 1.812862 
1.133390 3.655607 3.231977 -45.109310 -0.048370 1.821402 
1.133341 3.655464 3.231428 -45.137700 -0.068970 1.794122 
1.133147 3.655486 3.230500 -45.133480 -0.084686 1.815659 
1.132572 3.655433 3.228971 -45.168670 -0.031494 1.854102 
1.132032 3.654999 3.227329 -45.168490 -0.043335 1.858565 
1.131778 3.654964 3.225879 -45.178860 -0.012634 1.864761 
1.131386 3.654891 3.224700 -45.170140 -0.048431 1.868511 
1.131034 3.654457 3.223789 -45.152950 -0.093475 1.876560 
1.130964 3.654745 3.223064 -45.157070 -0.040100 1.881445 
1.131122 3.654651 3.223105 -45.156680 -0.078644 1.870334 
1.131131 3.654743 3.223166 -45.149870 -0.040588 1.897351 
1.131032 3.654635 3.223440 -45.147490 -0.020416 1.879670 
1.131072 3.654737 3.223783 -45.144100 -0.034912 1.901260 
1.130711 3.654624 3.224207 -45.171020 -0.054413 1.857937 
1.130385 3.654757 3.224375 -45.172270 -0.033386 1.864425 
1.129966 3.654679 3.224298 -45.175690 0.008497 1.860931 
1.129692 3.654800 3.224235 -45.161380 -0.005365 1.863130 
1.129609 3.654708 3.224109 -45.171080 0.004747 1.855936 
1.129849 3.654742 3.223546 -45.175140 0.016496 1.884604 
1.130100 3.654590 3.223053 -45.152860 -0.043091 1.913612 
1.130253 3.654410 3.222468 -45.143250 -0.086121 1.893063 
1.130347 3.654317 3.221838 -45.148350 -0.093903 1.887254 
1.130165 3.654331 3.221291 -45.154450 -0.086700 1.893926 
1.130195 3.654302 3.220946 -45.150730 -0.116089 1.877395 
1.129963 3.654378 3.220630 -45.172820 -0.089203 1.894231 
1.129553 3.654242 3.220623 -45.158020 -0.069122 1.908654 
1.129497 3.654250 3.220799 -45.165190 -0.090027 1.896507 
1.129385 3.654486 3.221065 -45.169530 -0.064087 1.894399 
1.129679 3.654336 3.221528 -45.150090 -0.095337 1.897574 
1.129876 3.654451 3.221838 -45.164150 -0.061554 1.878621 
1.130073 3.654443 3.222185 -45.144260 -0.061340 1.894733 
1.130083 3.654353 3.222503 -45.132230 -0.078583 1.885974 
1.130044 3.654581 3.222672 -45.164370 -0.074310 1.873580 
1.129985 3.654613 3.222898 -45.171330 -0.057098 1.875185 
1.129797 3.654444 3.222896 -45.160740 -0.077484 1.883460 
1.130090 3.654835 3.222564 -45.111630 -0.178558 1.915189 
1.130039 3.654863 3.222436 -45.106320 -0.179077 1.918390 
1.129730 3.654318 3.222129 -45.152010 -0.091248 1.869668 
1.130021 3.654336 3.221583 -45.167360 -0.045410 1.854586 
1.129961 3.654191 3.221327 -45.173030 -0.070770 1.846994 
1.129835 3.654136 3.221118 -45.159000 -0.079102 1.866423 
1.129807 3.654297 3.220952 -45.156250 -0.068909 1.891830 
1.129922 3.654358 3.220873 -45.164060 -0.107239 1.871939 
1.129887 3.654469 3.221097 -45.144810 -0.098938 1.910968 
1.129824 3.654597 3.221133 -45.163300 -0.029358 1.894047 
1.129766 3.654351 3.221557 -45.146240 -0.094452 1.899448 
1.130260 3.654682 3.221485 -45.132970 -0.156403 1.886601 
1.130232 3.654681 3.221935 -45.115050 -0.194397 1.914635 
1.130206 3.654819 3.222235 -45.117800 -0.197113 1.920959 
1.130262 3.654920 3.222274 -45.097990 -0.141968 1.918924 
1.130231 3.654912 3.222288 -45.102480 -0.192261 1.917343 
1.130381 3.655029 3.222275 -45.130680 -0.154205 1.905043 
1.130114 3.654512 3.221873 -45.138920 -0.071655 1.846182 
1.129999 3.654617 3.221876 -45.160370 -0.045654 1.883734 
1.129917 3.654434 3.221798 -45.148800 -0.092926 1.892630 
1.129976 3.654429 3.221483 -45.155030 -0.100800 1.889716 
1.130029 3.654370 3.221344 -45.152920 -0.106415 1.892438 
1.130444 3.654579 3.221111 -45.115570 -0.188202 1.899972 
1.130060 3.654216 3.220962 -45.154880 -0.093994 1.882834 
1.129799 3.654233 3.220860 -45.162230 -0.089081 1.843747 
1.129622 3.654133 3.220955 -45.161960 -0.063782 1.864866 
1.129298 3.654186 3.221107 -45.162840 -0.068634 1.883947 
1.129168 3.654174 3.221311 -45.172940 -0.045441 1.890251 
1.129319 3.654466 3.221465 -45.156070 -0.021240 1.893421 
